<svg width="21" height="21" viewBox="0 0 21 21" fill="none" xmlns="http://www.w3.org/2000/svg">
<g clip-path="url(#clip0_580_3474)">
<path fill-rule="evenodd" clip-rule="evenodd" d="M7.83241 0.500038C6.72684 0.500874 5.83208 1.41867 5.8329 2.54962C5.83208 3.68057 6.72766 4.59837 7.83323 4.5992H9.83356V2.55046C9.83437 1.41951 8.9388 0.50171 7.83241 0.500038C7.83323 0.500038 7.83323 0.500038 7.83241 0.500038V0.500038ZM7.83241 5.9667H2.49984C1.39427 5.96754 0.498697 6.88534 0.499514 8.01629C0.49788 9.14723 1.39345 10.065 2.49902 10.0667H7.83241C8.93798 10.0659 9.83355 9.14807 9.83274 8.01712C9.83355 6.88534 8.93798 5.96754 7.83241 5.9667Z" fill="#36C5F0"/>
<path fill-rule="evenodd" clip-rule="evenodd" d="M20.4998 8.01628C20.5006 6.88533 19.605 5.96753 18.4994 5.9667C17.3938 5.96753 16.4983 6.88533 16.4991 8.01628V10.0667H18.4994C19.605 10.0659 20.5006 9.14806 20.4998 8.01628ZM15.1664 8.01628V2.54961C15.1672 1.4195 14.2724 0.501702 13.1668 0.500031C12.0613 0.500866 11.1657 1.41866 11.1665 2.54961V8.01628C11.1649 9.14723 12.0604 10.065 13.166 10.0667C14.2716 10.0659 15.1672 9.14806 15.1664 8.01628Z" fill="#2EB67D"/>
<path fill-rule="evenodd" clip-rule="evenodd" d="M13.1659 21C14.2714 20.9992 15.167 20.0814 15.1662 18.9505C15.167 17.8195 14.2714 16.9017 13.1659 16.9009H11.1655V18.9505C11.1647 20.0806 12.0603 20.9984 13.1659 21ZM13.1659 15.5325H18.4992C19.6048 15.5317 20.5004 14.6139 20.4996 13.483C20.5012 12.352 19.6056 11.4342 18.5001 11.4325H13.1667C12.0611 11.4334 11.1655 12.3512 11.1663 13.4821C11.1655 14.6139 12.0603 15.5317 13.1659 15.5325Z" fill="#ECB22E"/>
<path fill-rule="evenodd" clip-rule="evenodd" d="M0.499512 13.4829C0.498695 14.6139 1.39427 15.5317 2.49984 15.5325C3.60541 15.5317 4.50098 14.6139 4.50017 13.4829V11.4333H2.49984C1.39427 11.4342 0.498695 12.352 0.499512 13.4829ZM5.8329 13.4829V18.9496C5.83127 20.0805 6.72684 20.9983 7.83241 21C8.93798 20.9992 9.83355 20.0814 9.83274 18.9504V13.4846C9.83437 12.3536 8.9388 11.4358 7.83323 11.4342C6.72684 11.4342 5.83208 12.352 5.8329 13.4829C5.8329 13.4837 5.8329 13.4829 5.8329 13.4829Z" fill="#E01E5A"/>
</g>
<defs>
<clipPath id="clip0_580_3474">
<rect x="0.5" y="0.500038" width="20" height="20.5" fill="white"/>
</clipPath>
</defs>
</svg>
